<?xml version="1.0" encoding="utf-8"?>
<!-- Generator: Adobe Illustrator 21.0.0, SVG Export Plug-In . SVG Version: 6.00 Build 0)  -->
<svg version="1.1" id="圖層_1" xmlns="http://www.w3.org/2000/svg" xmlns:xlink="http://www.w3.org/1999/xlink" x="0px" y="0px"
	 viewBox="0 0 1920 1080" style="enable-background:new 0 0 1920 1080;" xml:space="preserve">
<style type="text/css">
	.st0{fill:#009EB8;}
	.st1{fill:#FFFFFF;stroke:#78C7CA;stroke-miterlimit:10;}
	.st2{fill:#78C7CA;}
	.st3{fill:none;stroke:#78C7CA;stroke-miterlimit:10;}
	.st4{fill:#FFFFFF;stroke:#78C7CA;stroke-width:3;stroke-miterlimit:10;}
	.st5{fill:#8DC21F;}
	.st6{font-family:'AdobeFanHeitiStd-Bold-B5pc-H';}
	.st7{font-size:83.236px;}
	.st8{letter-spacing:16;}
	.st9{fill:#00913A;}
	.st10{fill:#006934;}
</style>
<g>
	<path class="st0" d="M1255.9,320.7c3.5,1.6,7.1,3.1,10.6,4.7c3.8,1.6,7.5,3.2,11.3,4.9c4,1.8,8,3.7,12.3,5.7
		c-3.9,7.5-7.7,14.8-11.4,22.1c-4.1,8.2-8.2,16.4-12.2,24.6c-1.2,2.5-2.4,5.1-3.2,7.7c-1,3.3-0.2,4.1,3,3.2c1-0.3,1.9-0.5,2.8-1
		c3.1-1.8,6.2-3.8,9.2-5.7c6.4-3.9,12.8-7.6,19.1-11.5c6.5-4,13-8.2,19.5-12.3c3.4-2.1,6.7-4.4,10.1-6.5c1.3-0.8,2.3-1.4,4.2-0.6
		c4.5,2.1,9.3,3.7,13.9,5.5c9.7,3.6,19.4,7.1,29,10.7c7,2.6,13.9,5.5,20.9,8.1c2.5,0.9,5.2,1.6,7.8,2.2c1.9,0.4,2.8-0.6,2.4-2.5
		c-0.2-1-0.6-2.2-1.2-3c-2.2-2.8-4.5-5.4-6.8-8.1c-9.7-11.7-19.4-23.5-29.1-35.2c-1.1-1.3-2.1-2.7-3.3-4.2c3.8-2.2,7.5-4.3,11.2-6.4
		c6.7-3.8,13.5-7.6,20.1-11.6c3.6-2.1,7-4.4,10.5-6.8c1.9-1.3,1.5-2.8-0.3-3.8c-1-0.5-2.1-0.9-3.3-0.9c-4.8-0.3-9.7-0.6-14.5-0.8
		c-4.1-0.2-8.3-0.4-12.4-0.5c-6.7-0.2-13.3-0.3-20-0.6c-0.9,0-2.1-0.7-2.7-1.4c-5.6-6.5-11.2-13-16.7-19.6c-2.5-3-5.1-5.9-9.3-6.3
		c-5.5-0.5-8.5,3-11,7.1c-4.5,7.4-8.9,14.8-13.4,22.1c-0.8,1.2-2.1,2.6-3.4,2.9c-7.5,1.8-15,3.3-22.5,4.9
		c-6.1,1.3-12.3,2.3-18.4,3.6c-1.8,0.4-3.7,1-5.4,1.8c-2.5,1.2-3.3,3.5-1.7,5C1253,319.2,1254.4,320.1,1255.9,320.7z"/>
	<path class="st1" d="M1481,669.2c-3.4-7.1-7.4-13.7-12.1-19.9c-2.7-3.5-5.6-6.7-8.7-9.7c-0.7,1.6-1.4,3.2-2.2,4.8
		c-3.3,6.6-6.8,13.1-10.7,19.4c-4.2,6.7-9.3,12.7-14.9,18.3c-6,6-12.2,11.6-19.4,16.1c-4.9,3.1-9.8,6-14.8,9
		c-8.4,5-17.4,8.3-26.7,11.1c-7.4,2.3-14.9,4.2-22.7,4.8c-7.6,0.6-15.3,1.5-22.9,1.6c-5.4,0.1-11-0.6-16.3-1.6
		c-5.8-1.1-11.6-2.3-17.3-3.8c-8.4-1.4-11-2.1-17.2-5.9c-4.6-2-9-4.3-13.2-6.9c-7.4-4.6-14-10.3-20.8-15.8c-0.2,0.6-0.5,1.1-0.7,1.7
		c-2,5-3.8,10.2-4.6,15.5c-1.2,7.4-1.9,15-1.9,22.5c0,6.2,0.9,12.6,2,18.7c1.5,7.9,4.3,15.5,7.8,22.8c3.8,7.8,8.4,15.2,14.4,21.6
		c2,2.2,3.6,4.9,5.9,6.7c6.8,5.5,13.5,11.3,20.9,15.9c6.8,4.2,14.3,7.8,22,10.4c8.3,2.9,17,4.6,25.7,6.3c5.3,1.1,10.9,1.7,16.3,1.6
		c7.7-0.1,15.3-1,22.9-1.6c7.8-0.7,15.2-2.6,22.7-4.8c9.3-2.8,18.3-6.1,26.7-11.1c5-2.9,9.9-5.9,14.8-9c7.1-4.6,13.4-10.1,19.4-16.1
		c5.6-5.6,10.7-11.6,14.9-18.3c3.9-6.3,7.5-12.8,10.7-19.4c2.2-4.3,4-9,5.1-13.7c1.6-6.9,3-14,3.5-21.1c0.5-7.7,0.4-15.6-0.6-23.3
		C1487.9,686.8,1485.1,677.8,1481,669.2z"/>
	<ellipse transform="matrix(0.9924 -0.123 0.123 0.9924 -83.3061 168.1882)" class="st2" cx="1321" cy="759" rx="20.1" ry="20.1"/>
	
		<ellipse transform="matrix(0.9924 -0.123 0.123 0.9924 -79.8422 180.779)" class="st2" cx="1424.7" cy="737.2" rx="18.3" ry="18.3"/>
	<path class="st1" d="M1465.5,391.1c-1.8-7.6-4.4-15-7.8-22c-4.3-8.9-10-16.8-16.5-24.2c-9-10.3-19.5-18.3-31.5-24.9
		c-4.1-2.3-7.3-3.8-11.8-0.2c-4.6,3.7-10.3,6-15.5,8.9c-1.6,0.9-3.2,1.6-5,2.6c1,1.3,1.7,2.4,2.5,3.3c3.5,4.2,7,8.3,10.4,12.5
		c5.5,6.6,11,13.3,16.5,19.9c3,3.7,6.3,7.5,6.7,12.2c0.8,8-5.4,12.3-12.5,11c-5.8-1.1-11.5-3.5-17.1-5.6c-8.9-3.2-17.8-6.6-26.6-10
		c-8.2-3.1-16.3-6.4-24.5-9.5c-1.3-0.5-3.2-0.2-4.5,0.4c-3.3,1.7-6.3,3.9-9.4,5.9c-6.3,3.8-12.6,7.6-18.8,11.4
		c-6.7,4.1-13.3,8.4-20,12.6c-2.7,1.7-5.6,3-8.2,4.8c-3,2.1-6.4,2.2-9.6,1.5c-6.5-1.5-8.8-7.8-7.1-13.1c1.3-4.2,3.3-8.1,5.2-12.1
		c2.4-5,4.8-10,7.4-15c2.5-5,5.2-9.9,7.7-14.8c1.1-2.2,2.1-4.5,3.3-7c-1.4-0.5-2.6-0.9-3.7-1.4c-5.6-2.5-11.1-5.1-16.7-7.4
		c-1-0.4-2.8-0.2-3.6,0.4c-6,5.4-12.1,10.6-17.6,16.6c-4.5,5-8.4,10.6-12.1,16.3c-3,4.5-5.8,9.2-7.7,14.2c-2.7,7-4.9,14.3-6.5,21.6
		c-1.3,6.1-1.8,12.5-1.9,18.7c-0.2,8.1,1,16.1,3,23.9c2.2,8.4,5.1,16.6,9.6,24.1c1.5,2.6,2.5,5.5,4.4,7.8c0,0.1,0.1,0.1,0.1,0.2
		c5.5,6.8,10.8,13.7,17.1,19.7c3.6,3.4,7.4,6.6,11.5,9.5c2.6,1.8,5.2,3.6,7.9,5.2c2.5,1.5,5.1,2.9,7.7,4.2
		c5.3,2.6,10.7,4.9,16.1,7.2c5,2.1,10.3,3.9,15.6,4.9c7.5,1.5,15.2,2.2,22.8,3.1c7.7,1,15.4,0.6,23.2,0c9.7-0.8,19.2-2.2,28.4-5.4
		c5.5-1.9,10.9-3.7,16.3-5.7c7.9-3,15.2-7.1,22.3-11.8c6.6-4.4,12.9-9.1,18.4-14.8c5.1-5.3,9.9-11,14.5-16.8
		c1.1-1.4,2.1-2.8,3.1-4.2c1.8-2.6,3.4-5.3,4.7-8.1c3-6.5,5.9-13.1,7.8-20c2.1-7.5,3.7-15.2,4.3-22.9
		C1468.7,409.7,1467.7,400.4,1465.5,391.1z"/>
	<circle class="st2" cx="1279" cy="443" r="20.1"/>
	<path class="st3" d="M1330.3,506.7c-0.1,0-0.3,0-0.4,0c-15.5-0.3-26.6-14-27-14.6l1.9-1.5c0.1,0.1,10.8,13.5,25.2,13.7
		c8.7,0.2,17.1-4.5,24.9-13.7l1.8,1.5C1348.4,501.8,1339.6,506.7,1330.3,506.7z"/>
	<polygon class="st3" points="1401,462 1400.1,464.2 1370.5,451.4 1399.8,429.1 1401.2,431 1375.1,450.8 	"/>
	<path class="st1" d="M1460.3,549.1c-1.8-7.6-4.4-15-7.8-22c-1.9-3.9-4.1-7.7-6.5-11.3c-1,1.5-2.1,2.9-3.1,4.2
		c-4.6,5.8-9.4,11.4-14.5,16.8c-5.5,5.7-11.8,10.5-18.4,14.8c-7.1,4.7-14.4,8.8-22.3,11.8c-5.4,2-10.9,3.9-16.3,5.7
		c-9.2,3.1-18.8,4.5-28.4,5.4c-7.7,0.7-15.5,1-23.2,0c-7.6-0.9-15.3-1.7-22.8-3.1c-5.3-1.1-10.6-2.8-15.6-4.9
		c-5.4-2.3-10.9-4.6-16.1-7.2c-5.6-2-9.1-4.3-15.6-9.4c-4-2.9-7.9-6.1-11.5-9.5c-6.3-6-11.6-13-17.1-19.7c-0.3,0.5-0.7,1-1,1.5
		c-3,4.5-5.8,9.2-7.7,14.2c-2.7,7-4.9,14.3-6.5,21.6c-1.3,6.1-1.8,12.5-1.9,18.7c-0.2,8.1,1,16.1,3,23.9c2.2,8.4,5.1,16.6,9.6,24.1
		c1.5,2.6,2.5,5.5,4.4,7.8c5.5,6.8,10.9,13.8,17.2,19.9c5.8,5.6,12.4,10.5,19.3,14.7c7.5,4.5,15.7,8,23.8,11.4
		c5,2.1,10.3,3.9,15.6,4.9c7.5,1.5,15.2,2.2,22.8,3.1c7.7,1,15.4,0.6,23.2,0c9.7-0.8,19.2-2.2,28.4-5.4c5.5-1.9,10.9-3.7,16.3-5.7
		c7.9-3,15.2-7.1,22.3-11.8c6.6-4.4,12.9-9.1,18.4-14.8c5.1-5.3,9.9-11,14.5-16.8c3-3.8,5.8-7.9,7.8-12.3c3-6.5,5.9-13.1,7.8-20
		c2.1-7.5,3.7-15.2,4.3-22.9C1463.5,567.7,1462.5,558.3,1460.3,549.1z"/>
	<circle class="st2" cx="1293.8" cy="615.1" r="20.1"/>
	<ellipse class="st3" cx="1346.4" cy="668.2" rx="8.9" ry="9.4"/>
	<circle class="st2" cx="1395.3" cy="603.3" r="20.1"/>
	<path class="st4" d="M742.5,731c0-105.1,85.2-190.4,190.4-190.4c47.1,0,90.2,17.1,123.4,45.5c1.9-14.9,2.9-30.1,2.9-45.5
		c0-187.8-145.8-341.4-330.4-354.1c-3.9,2.2-7.8,4.5-11.8,6.8c1.6,2.1,3,3.9,4.4,5.7c13.2,16,26.4,32,39.7,48c3,3.7,6.2,7.2,9.2,11
		c0.9,1.1,1.4,2.6,1.7,4c0.5,2.6-0.7,3.9-3.3,3.4c-3.6-0.8-7.2-1.7-10.6-3c-9.5-3.6-19-7.4-28.5-11c-13.1-4.9-26.4-9.7-39.5-14.5
		c-6.4-2.4-12.8-4.6-19-7.4c-2.5-1.2-4-0.2-5.7,0.8c-4.6,2.9-9.1,5.9-13.7,8.8c-8.8,5.6-17.7,11.3-26.6,16.8
		c-8.6,5.3-17.3,10.5-26,15.7c-4.2,2.6-8.4,5.2-12.6,7.8c-1.1,0.7-2.5,1-3.8,1.4c-4.4,1.2-5.6,0.1-4.1-4.4c1.2-3.6,2.7-7.1,4.4-10.5
		c5.5-11.2,11-22.4,16.6-33.5c5-10,10.3-19.8,15.6-30.1c-2.4-1.1-4.7-2.2-7-3.3c-149.3,41.9-258.7,179-258.7,341.7
		c0,196,158.9,354.9,354.9,354.9c37.8,0,74.3-5.9,108.5-16.9C769.9,843.7,742.5,790.6,742.5,731z"/>
	<path class="st1" d="M1043,601.7c-29.7-25.3-68.1-40.6-110.2-40.6c-93.8,0-169.9,76.1-169.9,169.9c0,53.2,24.4,100.6,62.7,131.8
		c29.2,23.8,66.6,38.1,107.2,38.1c93.8,0,169.9-76.1,169.9-169.9C1102.7,679.2,1079.5,632.8,1043,601.7z"/>
	<path class="st0" d="M934.3,810.6c2.4,1.1,4.8,2.1,7.3,3.2c2.6,1.1,5.2,2.2,7.7,3.3c2.8,1.2,5.5,2.5,8.4,3.9
		c-2.7,5.2-5.3,10.1-7.8,15.1c-2.8,5.6-5.6,11.2-8.3,16.8c-0.8,1.7-1.6,3.5-2.2,5.3c-0.7,2.2-0.1,2.8,2.1,2.2
		c0.6-0.2,1.3-0.4,1.9-0.7c2.1-1.3,4.2-2.6,6.3-3.9c4.3-2.6,8.7-5.2,13-7.9c4.5-2.8,8.9-5.6,13.3-8.4c2.3-1.5,4.6-3,6.9-4.4
		c0.9-0.5,1.6-1,2.9-0.4c3.1,1.4,6.3,2.5,9.5,3.7c6.6,2.4,13.2,4.8,19.8,7.3c4.8,1.8,9.5,3.7,14.3,5.5c1.7,0.6,3.5,1.1,5.3,1.5
		c1.3,0.3,1.9-0.4,1.7-1.7c-0.1-0.7-0.4-1.5-0.8-2c-1.5-1.9-3.1-3.7-4.6-5.5c-6.6-8-13.3-16-19.9-24c-0.7-0.9-1.4-1.8-2.2-2.9
		c2.6-1.5,5.1-3,7.6-4.4c4.6-2.6,9.2-5.2,13.7-7.9c2.4-1.4,4.8-3,7.1-4.6c1.3-0.9,1-1.9-0.2-2.6c-0.7-0.4-1.5-0.6-2.2-0.6
		c-3.3-0.2-6.6-0.4-9.9-0.5c-2.8-0.1-5.6-0.2-8.5-0.3c-4.6-0.1-9.1-0.2-13.7-0.4c-0.6,0-1.4-0.5-1.8-0.9c-3.8-4.4-7.6-8.9-11.4-13.4
		c-1.7-2.1-3.5-4.1-6.4-4.3c-3.7-0.3-5.8,2-7.5,4.8c-3.1,5-6,10.1-9.2,15.1c-0.5,0.8-1.4,1.8-2.3,2c-5.1,1.2-10.2,2.3-15.4,3.3
		c-4.2,0.9-8.4,1.6-12.6,2.5c-1.3,0.3-2.5,0.7-3.7,1.2c-1.7,0.8-2.3,2.4-1.2,3.4C932.3,809.6,933.3,810.1,934.3,810.6z"/>
	<path class="st0" d="M596.1,184.8c3.4,1.6,6.8,3,10.2,4.5c3.6,1.6,7.2,3.1,10.8,4.7c3.9,1.7,7.7,3.6,11.8,5.5
		c-3.7,7.2-7.4,14.2-10.9,21.2c-3.9,7.8-7.8,15.7-11.6,23.6c-1.2,2.4-2.3,4.8-3.1,7.4c-1,3.1-0.2,3.9,2.9,3.1c0.9-0.2,1.9-0.5,2.7-1
		c3-1.8,5.9-3.7,8.8-5.5c6.1-3.7,12.2-7.3,18.3-11c6.3-3.9,12.5-7.8,18.7-11.8c3.2-2,6.4-4.2,9.6-6.2c1.2-0.7,2.2-1.4,4-0.6
		c4.3,2,8.9,3.6,13.3,5.2c9.2,3.4,18.5,6.7,27.8,10.2c6.7,2.5,13.3,5.2,20,7.7c2.4,0.9,4.9,1.5,7.5,2.1c1.8,0.4,2.7-0.6,2.3-2.4
		c-0.2-1-0.6-2.1-1.2-2.8c-2.1-2.6-4.3-5.1-6.5-7.7c-9.3-11.2-18.6-22.4-27.9-33.7c-1-1.3-2-2.6-3.1-4c3.7-2.1,7.2-4.1,10.7-6.2
		c6.4-3.7,12.9-7.3,19.2-11.1c3.4-2,6.7-4.3,10-6.5c1.8-1.2,1.5-2.7-0.3-3.6c-0.9-0.5-2.1-0.8-3.1-0.9c-4.6-0.3-9.3-0.5-13.9-0.8
		c-4-0.2-7.9-0.3-11.9-0.5c-6.4-0.2-12.8-0.3-19.1-0.5c-0.9,0-2-0.6-2.6-1.3c-5.4-6.2-10.7-12.5-15.9-18.8c-2.4-2.9-4.8-5.7-8.9-6
		c-5.2-0.5-8.1,2.9-10.5,6.8c-4.3,7-8.5,14.2-12.8,21.2c-0.7,1.2-2,2.5-3.2,2.8c-7.1,1.7-14.3,3.2-21.5,4.7
		c-5.9,1.2-11.7,2.2-17.6,3.5c-1.8,0.4-3.5,1-5.1,1.7c-2.4,1.1-3.2,3.4-1.6,4.7C593.3,183.3,594.7,184.1,596.1,184.8z"/>
	<text transform="matrix(1 0 0 1 413.3691 497.5664)"><tspan x="0" y="0" class="st5 st6 st7 st8">Farm</tspan><tspan x="260.4" y="0" class="st0 st6 st7 st8"> </tspan><tspan x="0" y="111" class="st9 st6 st7 st8">Resources </tspan><tspan x="0" y="222" class="st10 st6 st7 st8">Integration</tspan></text>
</g>
</svg>
