<?xml version="1.0" encoding="utf-8"?>
<!-- Generator: Adobe Illustrator 21.0.0, SVG Export Plug-In . SVG Version: 6.00 Build 0)  -->
<svg version="1.1" id="圖層_1" xmlns="http://www.w3.org/2000/svg" xmlns:xlink="http://www.w3.org/1999/xlink" x="0px" y="0px"
	 viewBox="0 0 160.5 70.9" style="enable-background:new 0 0 160.5 70.9;" xml:space="preserve">
<style type="text/css">
	.st0{fill:#009EB8;}
	.st1{fill:#FFFFFF;stroke:#78C7CA;stroke-miterlimit:10;}
	.st2{fill:#78C7CA;}
	.st3{fill:none;stroke:#78C7CA;stroke-miterlimit:10;}
	.st4{fill:#FFFFFF;}
	.st5{font-family:'AdobeFanHeitiStd-Bold-B5pc-H';}
	.st6{font-size:6.4669px;}
	.st7{letter-spacing:1;}
	.st8{font-size:12px;}
	.st9{letter-spacing:2;}
</style>
<g>
	<path class="st0" d="M7,6.2c0.4,0.2,0.9,0.4,1.3,0.6C8.8,7,9.3,7.2,9.7,7.4c0.5,0.2,1,0.5,1.5,0.7c-0.5,0.9-1,1.8-1.4,2.8
		c-0.5,1-1,2-1.5,3.1c-0.2,0.3-0.3,0.6-0.4,1c-0.1,0.4,0,0.5,0.4,0.4c0.1,0,0.2-0.1,0.3-0.1C9,15,9.4,14.8,9.8,14.5
		c0.8-0.5,1.6-1,2.4-1.4c0.8-0.5,1.6-1,2.4-1.5c0.4-0.3,0.8-0.5,1.3-0.8c0.2-0.1,0.3-0.2,0.5-0.1c0.6,0.3,1.2,0.5,1.7,0.7
		c1.2,0.4,2.4,0.9,3.6,1.3c0.9,0.3,1.7,0.7,2.6,1c0.3,0.1,0.6,0.2,1,0.3c0.2,0.1,0.4-0.1,0.3-0.3c0-0.1-0.1-0.3-0.2-0.4
		c-0.3-0.3-0.6-0.7-0.8-1c-1.2-1.5-2.4-2.9-3.6-4.4c-0.1-0.2-0.3-0.3-0.4-0.5c0.5-0.3,0.9-0.5,1.4-0.8c0.8-0.5,1.7-1,2.5-1.4
		c0.4-0.3,0.9-0.6,1.3-0.8c0.2-0.2,0.2-0.3,0-0.5c-0.1-0.1-0.3-0.1-0.4-0.1c-0.6,0-1.2-0.1-1.8-0.1c-0.5,0-1,0-1.5-0.1
		c-0.8,0-1.7,0-2.5-0.1c-0.1,0-0.3-0.1-0.3-0.2c-0.7-0.8-1.4-1.6-2.1-2.5c-0.3-0.4-0.6-0.7-1.2-0.8c-0.7-0.1-1.1,0.4-1.4,0.9
		c-0.6,0.9-1.1,1.9-1.7,2.8C12.8,3.8,12.6,4,12.5,4c-0.9,0.2-1.9,0.4-2.8,0.6C8.9,4.8,8.1,4.9,7.4,5.1c-0.2,0-0.5,0.1-0.7,0.2
		C6.4,5.5,6.3,5.7,6.5,5.9C6.6,6.1,6.8,6.2,7,6.2z"/>
	<path class="st1" d="M35.1,49.8c-0.4-0.9-0.9-1.7-1.5-2.5c-0.3-0.4-0.7-0.8-1.1-1.2c-0.1,0.2-0.2,0.4-0.3,0.6
		c-0.4,0.8-0.9,1.6-1.3,2.4c-0.5,0.8-1.2,1.6-1.9,2.3c-0.7,0.8-1.5,1.4-2.4,2c-0.6,0.4-1.2,0.8-1.9,1.1c-1,0.6-2.2,1-3.3,1.4
		c-0.9,0.3-1.9,0.5-2.8,0.6c-1,0.1-1.9,0.2-2.9,0.2c-0.7,0-1.4-0.1-2-0.2c-0.7-0.1-1.4-0.3-2.2-0.5c-1.1-0.2-1.4-0.3-2.1-0.7
		c-0.6-0.3-1.1-0.5-1.6-0.9c-0.9-0.6-1.7-1.3-2.6-2c0,0.1-0.1,0.1-0.1,0.2c-0.2,0.6-0.5,1.3-0.6,1.9c-0.1,0.9-0.2,1.9-0.2,2.8
		c0,0.8,0.1,1.6,0.3,2.3c0.2,1,0.5,1.9,1,2.8c0.5,1,1,1.9,1.8,2.7c0.3,0.3,0.5,0.6,0.7,0.8c0.9,0.7,1.7,1.4,2.6,2
		c0.9,0.5,1.8,1,2.7,1.3c1,0.4,2.1,0.6,3.2,0.8c0.7,0.1,1.4,0.2,2,0.2c1,0,1.9-0.1,2.9-0.2c1-0.1,1.9-0.3,2.8-0.6
		c1.2-0.4,2.3-0.8,3.3-1.4c0.6-0.4,1.2-0.7,1.9-1.1c0.9-0.6,1.7-1.3,2.4-2c0.7-0.7,1.3-1.5,1.9-2.3c0.5-0.8,0.9-1.6,1.3-2.4
		c0.3-0.5,0.5-1.1,0.6-1.7c0.2-0.9,0.4-1.8,0.4-2.6c0.1-1,0.1-1.9-0.1-2.9C36,52,35.6,50.9,35.1,49.8z"/>
	<ellipse transform="matrix(0.9924 -0.123 0.123 0.9924 -7.3864 2.3217)" class="st2" cx="15.1" cy="61" rx="2.5" ry="2.5"/>
	<ellipse transform="matrix(0.9924 -0.123 0.123 0.9924 -6.9536 3.8948)" class="st2" cx="28.1" cy="58.3" rx="2.3" ry="2.3"/>
	<path class="st1" d="M33.2,15c-0.2-1-0.5-1.9-1-2.7c-0.5-1.1-1.3-2.1-2.1-3C29,8,27.7,7,26.2,6.2c-0.5-0.3-0.9-0.5-1.5,0
		c-0.6,0.5-1.3,0.8-1.9,1.1c-0.2,0.1-0.4,0.2-0.6,0.3c0.1,0.2,0.2,0.3,0.3,0.4c0.4,0.5,0.9,1,1.3,1.6c0.7,0.8,1.4,1.7,2.1,2.5
		c0.4,0.5,0.8,0.9,0.8,1.5c0.1,1-0.7,1.5-1.6,1.4c-0.7-0.1-1.4-0.4-2.1-0.7c-1.1-0.4-2.2-0.8-3.3-1.3c-1-0.4-2-0.8-3.1-1.2
		c-0.2-0.1-0.4,0-0.6,0.1c-0.4,0.2-0.8,0.5-1.2,0.7c-0.8,0.5-1.6,0.9-2.4,1.4c-0.8,0.5-1.7,1.1-2.5,1.6c-0.3,0.2-0.7,0.4-1,0.6
		c-0.4,0.3-0.8,0.3-1.2,0.2c-0.8-0.2-1.1-1-0.9-1.6c0.2-0.5,0.4-1,0.6-1.5c0.3-0.6,0.6-1.2,0.9-1.9c0.3-0.6,0.6-1.2,1-1.9
		c0.1-0.3,0.3-0.6,0.4-0.9C9.7,8.6,9.5,8.5,9.4,8.5C8.7,8.2,8,7.8,7.3,7.5C7.2,7.5,7,7.5,6.9,7.6C6.1,8.3,5.3,8.9,4.7,9.7
		c-0.6,0.6-1,1.3-1.5,2c-0.4,0.6-0.7,1.2-1,1.8c-0.3,0.9-0.6,1.8-0.8,2.7c-0.2,0.8-0.2,1.6-0.2,2.3c0,1,0.1,2,0.4,3
		c0.3,1.1,0.6,2.1,1.2,3c0.2,0.3,0.3,0.7,0.5,1c0,0,0,0,0,0C4,26.3,4.6,27.2,5.4,28c0.4,0.4,0.9,0.8,1.4,1.2c0.3,0.2,0.6,0.4,1,0.6
		c0.3,0.2,0.6,0.4,1,0.5c0.7,0.3,1.3,0.6,2,0.9c0.6,0.3,1.3,0.5,2,0.6c0.9,0.2,1.9,0.3,2.8,0.4c1,0.1,1.9,0.1,2.9,0
		c1.2-0.1,2.4-0.3,3.6-0.7c0.7-0.2,1.4-0.5,2-0.7c1-0.4,1.9-0.9,2.8-1.5c0.8-0.5,1.6-1.1,2.3-1.9c0.6-0.7,1.2-1.4,1.8-2.1
		c0.1-0.2,0.3-0.3,0.4-0.5c0.2-0.3,0.4-0.7,0.6-1c0.4-0.8,0.7-1.6,1-2.5c0.3-0.9,0.5-1.9,0.5-2.9C33.6,17.4,33.5,16.2,33.2,15z"/>
	<circle class="st2" cx="9.9" cy="21.5" r="2.5"/>
	<path class="st3" d="M16.3,29.5C16.3,29.5,16.2,29.5,16.3,29.5c-2,0-3.4-1.8-3.4-1.8l0.2-0.2c0,0,1.3,1.7,3.1,1.7
		c1.1,0,2.1-0.6,3.1-1.7l0.2,0.2C18.5,28.9,17.4,29.5,16.3,29.5z"/>
	<polygon class="st3" points="25.1,23.9 25,24.2 21.3,22.6 25,19.8 25.1,20 21.9,22.5 	"/>
	<path class="st1" d="M32.5,34.8c-0.2-1-0.5-1.9-1-2.7c-0.2-0.5-0.5-1-0.8-1.4c-0.1,0.2-0.3,0.4-0.4,0.5c-0.6,0.7-1.2,1.4-1.8,2.1
		c-0.7,0.7-1.5,1.3-2.3,1.9c-0.9,0.6-1.8,1.1-2.8,1.5c-0.7,0.3-1.4,0.5-2,0.7c-1.2,0.4-2.3,0.6-3.6,0.7c-1,0.1-1.9,0.1-2.9,0
		c-1-0.1-1.9-0.2-2.8-0.4c-0.7-0.1-1.3-0.4-2-0.6c-0.7-0.3-1.4-0.6-2-0.9c-0.7-0.2-1.1-0.5-1.9-1.2c-0.5-0.4-1-0.8-1.4-1.2
		c-0.8-0.7-1.4-1.6-2.1-2.5c0,0.1-0.1,0.1-0.1,0.2c-0.4,0.6-0.7,1.2-1,1.8c-0.3,0.9-0.6,1.8-0.8,2.7c-0.2,0.8-0.2,1.6-0.2,2.3
		c0,1,0.1,2,0.4,3c0.3,1.1,0.6,2.1,1.2,3c0.2,0.3,0.3,0.7,0.5,1c0.7,0.9,1.4,1.7,2.1,2.5c0.7,0.7,1.6,1.3,2.4,1.8c0.9,0.6,2,1,3,1.4
		c0.6,0.3,1.3,0.5,2,0.6c0.9,0.2,1.9,0.3,2.8,0.4c1,0.1,1.9,0.1,2.9,0c1.2-0.1,2.4-0.3,3.6-0.7c0.7-0.2,1.4-0.5,2-0.7
		c1-0.4,1.9-0.9,2.8-1.5c0.8-0.5,1.6-1.1,2.3-1.9c0.6-0.7,1.2-1.4,1.8-2.1c0.4-0.5,0.7-1,1-1.5c0.4-0.8,0.7-1.6,1-2.5
		c0.3-0.9,0.5-1.9,0.5-2.9C32.9,37.1,32.8,35.9,32.5,34.8z"/>
	<circle class="st2" cx="11.7" cy="43" r="2.5"/>
	<ellipse class="st3" cx="18.3" cy="49.7" rx="1.1" ry="1.2"/>
	<circle class="st2" cx="24.4" cy="41.6" r="2.5"/>
</g>
<text transform="matrix(1 0 0 1 46.243 48.7317)" class="st4 st5 st6 st7">Farm Resources Integration</text>
<text transform="matrix(1 0 0 1 52.7272 31.467)" class="st4 st5 st8 st9">農業資源整合</text>
</svg>
